{"accessors" : [{"bufferView" : 0, "byteOffset" : 0, "componentType" : 5123, "count" : 1302, "type" : "SCALAR", "max" : [1084], "min" : [0]}, {"bufferView" : 1, "byteOffset" : 0, "componentType" : 5126, "count" : 1085, "type" : "VEC3", "max" : [1.0998667478561401, 2.447849750518799, 1.6764483451843262], "min" : [-1.0490349531173706, -0.001265455037355423, -1.1023164987564087], "name" : "POSITION"}, {"bufferView" : 1, "byteOffset" : 12, "componentType" : 5126, "count" : 1085, "type" : "VEC3", "max" : [1.0000044107437134, 1.0000044107437134, 1.0000044107437134], "min" : [-1.0000044107437134, -1.0000044107437134, -1.0000044107437134], "name" : "NORMAL"}, {"bufferView" : 1, "byteOffset" : 24, "componentType" : 5126, "count" : 1085, "type" : "VEC2", "max" : [0.8750000596046448, 1], "min" : [0.1249999850988388, -2.384185791015625E-07], "name" : "TEXCOORD_0"}, {"bufferView" : 0, "byteOffset" : 2604, "componentType" : 5123, "count" : 5394, "type" : "SCALAR", "max" : [5027], "min" : [0]}, {"bufferView" : 2, "byteOffset" : 0, "componentType" : 5126, "count" : 5028, "type" : "VEC3", "max" : [1.2393180131912231, 4.0288166999816895, 1.7052175998687744], "min" : [-1.2393180131912231, 0.004323586821556091, -1.1654794216156006], "name" : "POSITION"}, {"bufferView" : 2, "byteOffset" : 12, "componentType" : 5126, "count" : 5028, "type" : "VEC3", "max" : [1.0000044107437134, 1.0000044107437134, 1.0000044107437134], "min" : [-1.0000044107437134, -1.0000044107437134, -1.0000044107437134], "name" : "NORMAL"}, {"bufferView" : 2, "byteOffset" : 24, "componentType" : 5126, "count" : 5028, "type" : "VEC2", "max" : [0.875, 1], "min" : [0.125, 0], "name" : "TEXCOORD_0"}, {"bufferView" : 0, "byteOffset" : 13392, "componentType" : 5123, "count" : 24, "type" : "SCALAR", "max" : [19], "min" : [0]}, {"bufferView" : 3, "byteOffset" : 0, "componentType" : 5126, "count" : 20, "type" : "VEC3", "max" : [1.0763744115829468, 2.3793792724609375, 1.0010015964508057], "min" : [-0.5505096912384033, 1.6850452423095703, -1.0697683095932007], "name" : "POSITION"}, {"bufferView" : 3, "byteOffset" : 12, "componentType" : 5126, "count" : 20, "type" : "VEC3", "max" : [1.0000042915344238, 0, 1.0000044107437134], "min" : [0, 0, -1.0000044107437134], "name" : "NORMAL"}, {"bufferView" : 3, "byteOffset" : 24, "componentType" : 5126, "count" : 20, "type" : "VEC2", "max" : [1, 1], "min" : [0, 0], "name" : "TEXCOORD_0"}, {"bufferView" : 0, "byteOffset" : 13440, "componentType" : 5123, "count" : 2172, "type" : "SCALAR", "max" : [1853], "min" : [0]}, {"bufferView" : 4, "byteOffset" : 0, "componentType" : 5126, "count" : 1854, "type" : "VEC3", "max" : [-0.1353624016046524, 2.250062942504883, 1.0053428411483765], "min" : [-0.4402065873146057, 1.159232258796692, 0.9697710275650024], "name" : "POSITION"}, {"bufferView" : 4, "byteOffset" : 12, "componentType" : 5126, "count" : 1854, "type" : "VEC3", "max" : [1.0000040531158447, 1.0000042915344238, 1.0000044107437134], "min" : [-1.0000044107437134, -1.0000042915344238, -0.9984508156776428], "name" : "NORMAL"}, {"bufferView" : 4, "byteOffset" : 24, "componentType" : 5126, "count" : 1854, "type" : "VEC2", "max" : [1, 1], "min" : [-1.564621925354004E-07, 0], "name" : "TEXCOORD_0"}, {"bufferView" : 0, "byteOffset" : 17784, "componentType" : 5123, "count" : 1215, "type" : "SCALAR", "max" : [1157], "min" : [0]}, {"bufferView" : 5, "byteOffset" : 0, "componentType" : 5126, "count" : 1158, "type" : "VEC3", "max" : [1.0431231260299683, 1.1695469617843628, 1.0691015720367432], "min" : [-1.0534354448318481, 0.004810857120901346, -1.0907516479492188], "name" : "POSITION"}, {"bufferView" : 5, "byteOffset" : 12, "componentType" : 5126, "count" : 1158, "type" : "VEC3", "max" : [0.9999600052833557, 0.9984949827194214, 0.9999886751174927], "min" : [-0.999999463558197, -0.9853703379631042, -0.9999529123306274], "name" : "NORMAL"}, {"bufferView" : 5, "byteOffset" : 24, "componentType" : 5126, "count" : 1158, "type" : "VEC2", "max" : [0.6250000596046448, 1], "min" : [0, 0.0023603439331054688], "name" : "TEXCOORD_0"}, {"bufferView" : 0, "byteOffset" : 20216, "componentType" : 5123, "count" : 2886, "type" : "SCALAR", "max" : [2556], "min" : [0]}, {"bufferView" : 6, "byteOffset" : 0, "componentType" : 5126, "count" : 2557, "type" : "VEC3", "max" : [1.1246483325958252, 3.886854648590088, 1.1314949989318848], "min" : [-1.0817567110061646, 2.3189001083374023, -1.193993330001831], "name" : "POSITION"}, {"bufferView" : 6, "byteOffset" : 12, "componentType" : 5126, "count" : 2557, "type" : "VEC3", "max" : [1.0000044107437134, 1.0000044107437134, 1.0000044107437134], "min" : [-1.0000044107437134, -0.9994333982467651, -1.0000044107437134], "name" : "NORMAL"}, {"bufferView" : 6, "byteOffset" : 24, "componentType" : 5126, "count" : 2557, "type" : "VEC2", "max" : [0.875, 1], "min" : [0.125, 0], "name" : "TEXCOORD_0"}], "asset" : {"generator" : "Aspose.3D 23.2", "version" : "2.0"}, "buffers" : [{"uri" : "data:application/octet-stream;base64,", "byteLength" : 441792}], "bufferViews" : [{"buffer" : 0, "byteOffset" : 0, "byteLength" : 25988, "target" : 34963}, {"buffer" : 0, "byteOffset" : 25992, "byteLength" : 41664, "byteStride" : 32, "target" : 34962}, {"buffer" : 0, "byteOffset" : 67660, "byteLength" : 172608, "byteStride" : 32, "target" : 34962}, {"buffer" : 0, "byteOffset" : 240272, "byteLength" : 768, "byteStride" : 32, "target" : 34962}, {"buffer" : 0, "byteOffset" : 241044, "byteLength" : 69504, "byteStride" : 32, "target" : 34962}, {"buffer" : 0, "byteOffset" : 310552, "byteLength" : 38880, "byteStride" : 32, "target" : 34962}, {"buffer" : 0, "byteOffset" : 349436, "byteLength" : 92352, "byteStride" : 32, "target" : 34962}], "materials" : [{"name" : "wood2", "pbrMetallicRoughness" : {"baseColorFactor" : [0.0822824165225029, 0.04394352436065674, 0.025462813675403595, 1], "metallicFactor" : 0, "roughnessFactor" : 1}, "emissiveFactor" : [0, 0, 0], "alphaMode" : "OPAQUE", "doubleSided" : true}, {"name" : "wood", "pbrMetallicRoughness" : {"baseColorFactor" : [0.13758325576782227, 0.07754862308502197, 0.04048343747854233, 1], "metallicFactor" : 0, "roughnessFactor" : 1}, "emissiveFactor" : [0, 0, 0], "alphaMode" : "OPAQUE", "doubleSided" : true}, {"name" : "blue", "pbrMetallicRoughness" : {"baseColorFactor" : [0.07596465200185776, 0.19175274670124054, 0.27383026480674744, 1], "metallicFactor" : 0, "roughnessFactor" : 1}, "emissiveFactor" : [0, 0, 0], "alphaMode" : "OPAQUE", "doubleSided" : true}, {"name" : "dark", "pbrMetallicRoughness" : {"baseColorFactor" : [0.03189603611826897, 0.019382359459996223, 0.016807381063699722, 1], "metallicFactor" : 0, "roughnessFactor" : 1}, "emissiveFactor" : [0, 0, 0], "alphaMode" : "OPAQUE", "doubleSided" : true}, {"name" : "stone", "pbrMetallicRoughness" : {"baseColorFactor" : [0.13562940061092377, 0.10570728033781052, 0.08722051978111267, 1], "metallicFactor" : 0, "roughnessFactor" : 1}, "emissiveFactor" : [0, 0, 0], "alphaMode" : "OPAQUE", "doubleSided" : true}, {"name" : "green", "pbrMetallicRoughness" : {"baseColorFactor" : [0.12213877588510513, 0.16202937066555023, 0.09084172546863556, 1], "metallicFactor" : 0, "roughnessFactor" : 1}, "emissiveFactor" : [0, 0, 0], "alphaMode" : "OPAQUE", "doubleSided" : true}], "meshes" : [{"primitives" : [{"attributes" : {"POSITION" : 1, "NORMAL" : 2, "TEXCOORD_0" : 3}, "indices" : 0, "material" : 0, "mode" : 4}, {"attributes" : {"POSITION" : 5, "NORMAL" : 6, "TEXCOORD_0" : 7}, "indices" : 4, "material" : 1, "mode" : 4}, {"attributes" : {"POSITION" : 9, "NORMAL" : 10, "TEXCOORD_0" : 11}, "indices" : 8, "material" : 2, "mode" : 4}, {"attributes" : {"POSITION" : 13, "NORMAL" : 14, "TEXCOORD_0" : 15}, "indices" : 12, "material" : 3, "mode" : 4}, {"attributes" : {"POSITION" : 17, "NORMAL" : 18, "TEXCOORD_0" : 19}, "indices" : 16, "material" : 4, "mode" : 4}, {"attributes" : {"POSITION" : 21, "NORMAL" : 22, "TEXCOORD_0" : 23}, "indices" : 20, "material" : 5, "mode" : 4}]}], "nodes" : [{"matrix" : [2.3239834308624268, 0, 0, 0, 0, 1.0295194387435913, 0, 0, 0, 0, 1.5933012962341309, 0, 0, 0, 0, 1], "mesh" : 0, "name" : "house"}], "scene" : 0, "scenes" : [{"nodes" : [0]}]}